<svg xmlns="http://www.w3.org/2000/svg" width="512" height="512" style=""><rect id="backgroundrect" width="100%" height="100%" x="0" y="0" fill="none" stroke="none"/><!--! Font Awesome Pro 6.0.0 by @fontawesome - https://fontawesome.com License - https://fontawesome.com/license (Commercial License) Copyright 2022 Fonticons, Inc. --><g class="currentLayer" style=""><title>Layer 1</title><path d="M156.93877792358398,432.32653045654297 H92.93877792358398 c-17.67,0 -32,-14.33 -32,-32 V144.32653045654297 c0,-17.67 14.33,-32 32,-32 h64 c17.67,0 32,-14.33 32,-32 S174.63877792358397,48.32653045654297 156.93877792358398,48.32653045654297 H92.93877792358398 C39.918777923583974,48.32653045654297 -3.0612220764160156,91.30653045654299 -3.0612220764160156,144.32653045654297 v256 c0,53.02 42.98,96 96,96 h64 c17.67,0 32,-14.33 32,-32 S174.63877792358397,432.32653045654297 156.93877792358398,432.32653045654297 zM499.538777923584,249.72653045654295 l-128,-128 c-12.51,-12.51 -32.76,-12.49 -45.25,0 c-12.5,12.5 -12.5,32.75 0,45.25 L399.73877792358394,240.32653045654297 H188.93877792358398 C171.238777923584,240.32653045654297 156.93877792358398,254.62653045654298 156.93877792358398,272.32653045654297 s14.31,32 32,32 h210.8 l-73.38,73.38 c-12.5,12.5 -12.5,32.75 0,45.25 s32.75,12.5 45.25,0 l128,-128 C512.038777923584,282.426530456543 512.038777923584,262.22653045654295 499.538777923584,249.72653045654295 z" id="svg_1" class="selected" fill="#ffffff" fill-opacity="1"/></g></svg>